
<svg xmlns="http://www.w3.org/2000/svg" viewBox="0 0 640 640"><!--!Font Awesome Free v7.2.0 by @fontawesome - https://fontawesome.com License - https://fontawesome.com/license/free Copyright 2026 Fonticons, Inc.--><path fill="#000000" d="M 0 0 L 640 0 L 640 640 L 0 640 Z M 0 0 " fill-opacity="1" fill-rule="nonzero"/><path fill="#FFFFFF" d="M96 160C96 124.7 124.7 96 160 96L480 96C515.3 96 544 124.7 544 160L544 480C544 515.3 515.3 544 480 544L160 544C124.7 544 96 515.3 96 480L96 160zM160 224L160 480L288 480L288 224L160 224zM480 224L352 224L352 480L480 480L480 224z"/></svg>