<svg xmlns="http://www.w3.org/2000/svg" xmlns:xlink="http://www.w3.org/1999/xlink" width="80" zoomAndPan="magnify" viewBox="0 0 60 67.499998" height="90" preserveAspectRatio="xMidYMid meet" version="1.0"><defs><clipPath id="10ae0829ca"><path d="M 6 23.832031 L 49 23.832031 L 49 61.558594 L 6 61.558594 Z M 6 23.832031 " clip-rule="nonzero"/></clipPath><clipPath id="4917bc8fda"><rect x="0" width="56" y="0" height="64"/></clipPath></defs><g transform="matrix(1, 0, 0, 1, 2, 2)"><g clip-path="url(#4917bc8fda)"><path fill="#000000" d="M 54.761719 25.035156 C 52.496094 16.390625 44.527344 9.972656 35.015625 9.972656 L 30.828125 9.972656 C 31.214844 8.546875 31.9375 7.230469 33.023438 6.160156 L 34.339844 4.871094 C 35.222656 4 35.222656 2.597656 34.339844 1.726562 C 33.453125 0.859375 32.007812 0.859375 31.144531 1.726562 L 29.832031 3.019531 C 27.886719 4.9375 26.617188 7.34375 26.164062 9.972656 L 21.433594 9.972656 C 11.945312 9.972656 3.976562 16.390625 1.710938 25.035156 C 1.351562 26.4375 2.460938 27.796875 3.929688 27.796875 L 52.542969 27.796875 C 54.011719 27.796875 55.121094 26.4375 54.761719 25.035156 Z M 54.761719 25.035156 " fill-opacity="1" fill-rule="nonzero"/><g clip-path="url(#10ae0829ca)"><path fill="#000000" d="M 6.199219 21.414062 L 48.671875 21.414062 L 48.671875 37.347656 C 48.667969 39.105469 48.441406 40.828125 47.996094 42.527344 C 47.546875 44.222656 46.894531 45.832031 46.035156 47.355469 C 45.175781 48.878906 44.136719 50.265625 42.921875 51.515625 C 41.707031 52.765625 40.351562 53.839844 38.863281 54.734375 L 27.433594 61.539062 L 16.007812 54.734375 C 14.515625 53.839844 13.164062 52.765625 11.949219 51.515625 C 10.734375 50.265625 9.695312 48.878906 8.835938 47.355469 C 7.976562 45.832031 7.324219 44.222656 6.875 42.527344 C 6.429688 40.828125 6.203125 39.105469 6.199219 37.347656 Z M 6.199219 21.414062 " fill-opacity="1" fill-rule="nonzero"/></g></g></g></svg>