<svg
  xmlns="http://www.w3.org/2000/svg"
  viewBox="0 0 187.5 187.5"
  preserveAspectRatio="xMidYMid meet">

  <!-- WHITE = visible area -->
  <rect width="100%" height="100%" fill="white"/>

  <!-- BLACK = hole / cutout -->
  <g fill="black">

    <!-- ===== PATH GROUP 1 ===== -->
    <g transform="translate(18 0)">
      <path d="M 51.3125 1.046875 C 43.570312 1.046875 36.550781 -0.65625 30.25 -4.0625 C 23.945312 -7.476562 18.945312 -12.507812 15.25 -19.15625 C 11.550781 -25.800781 9.703125 -33.75 9.703125 -43 C 9.703125 -50.039062 10.914062 -57.894531 13.34375 -66.5625 C 18.664062 -85.0625 27.015625 -98.125 38.390625 -105.75 C 49.773438 -113.375 61.941406 -117.1875 74.890625 -117.1875 C 86.679688 -117.1875 97.316406 -112.910156 106.796875 -104.359375 L 111.984375 -109.390625 C 114.878906 -111.816406 117.363281 -113.488281 119.4375 -114.40625 C 121.519531 -115.332031 123.945312 -115.796875 126.71875 -115.796875 C 129.726562 -115.796875 132.15625 -115.070312 134 -113.625 C 135.851562 -112.1875 136.78125 -110.253906 136.78125 -107.828125 C 136.78125 -106.898438 136.609375 -105.800781 136.265625 -104.53125 L 130.015625 -82.6875 C 128.859375 -78.988281 127.5 -76.390625 125.9375 -74.890625 C 124.382812 -73.390625 122.28125 -72.640625 119.625 -72.640625 C 116.84375 -72.640625 114.382812 -73.332031 112.25 -74.71875 C 110.113281 -76.101562 107.65625 -78.585938 104.875 -82.171875 C 101.175781 -87.023438 97.910156 -90.460938 95.078125 -92.484375 C 92.253906 -94.503906 89.164062 -95.515625 85.8125 -95.515625 C 80.613281 -95.515625 75.671875 -92.882812 70.984375 -87.625 C 66.304688 -82.375 62.234375 -73.625 58.765625 -61.375 C 56.566406 -53.394531 55.46875 -46.515625 55.46875 -40.734375 C 55.46875 -34.609375 56.648438 -29.957031 59.015625 -26.78125 C 61.390625 -23.601562 64.71875 -22.015625 69 -22.015625 C 72.695312 -22.015625 75.554688 -22.878906 77.578125 -24.609375 C 79.597656 -26.347656 81.1875 -29.351562 82.34375 -33.625 L 83.5625 -37.96875 C 84.132812 -40.28125 84.421875 -41.835938 84.421875 -42.640625 C 84.421875 -44.035156 84.101562 -45.019531 83.46875 -45.59375 C 82.832031 -46.164062 81.765625 -46.800781 80.265625 -47.5 L 74.203125 -49.75 C 71.535156 -50.789062 70.203125 -52.695312 70.203125 -55.46875 C 70.203125 -56.28125 70.265625 -56.914062 70.390625 -57.375 C 70.847656 -58.882812 71.679688 -59.984375 72.890625 -60.671875 C 74.109375 -61.367188 75.988281 -61.71875 78.53125 -61.71875 L 130.890625 -61.546875 C 134.703125 -61.546875 136.609375 -60.332031 136.609375 -57.90625 C 136.609375 -57.4375 136.492188 -56.742188 136.265625 -55.828125 C 135.796875 -54.085938 135.039062 -52.695312 134 -51.65625 C 132.96875 -50.613281 131.46875 -49.578125 129.5 -48.546875 L 124.984375 -45.9375 C 123.835938 -45.25 122.972656 -44.585938 122.390625 -43.953125 C 121.816406 -43.316406 121.410156 -42.535156 121.171875 -41.609375 L 111.984375 -9.53125 C 110.828125 -5.71875 109.523438 -3.175781 108.078125 -1.90625 C 106.640625 -0.632812 104.878906 0 102.796875 0 L 95.515625 0 C 92.742188 0 90.460938 -0.578125 88.671875 -1.734375 C 86.878906 -2.890625 85.40625 -5.144531 84.25 -8.5 L 82.515625 -13.515625 C 74.191406 -3.804688 63.789062 1.046875 51.3125 1.046875 Z"/>
    </g>

    <!-- ===== PATH GROUP 2 ===== -->
    <g transform="translate(29 0)">
      <path d="M 64.609375 -99.390625 C 64.847656 -100.128906 64.96875 -101.113281 64.96875 -102.34375 C 64.96875 -104.300781 64.445312 -105.894531 63.40625 -107.125 C 62.363281 -108.351562 60.738281 -109.703125 58.53125 -111.171875 C 56.6875 -112.523438 55.363281 -113.691406 54.5625 -114.671875 C 53.769531 -115.648438 53.5625 -116.816406 53.9375 -118.171875 C 54.300781 -119.890625 55.21875 -121.050781 56.6875 -121.65625 C 58.164062 -122.269531 60.5 -122.578125 63.6875 -122.578125 L 115.953125 -122.578125 C 118.535156 -122.578125 120.53125 -122.148438 121.9375 -121.296875 C 123.351562 -120.441406 124.0625 -119.335938 124.0625 -117.984375 C 124.0625 -117.367188 123.875 -116.570312 123.5 -115.59375 C 123.132812 -114.726562 122.613281 -113.957031 121.9375 -113.28125 C 121.257812 -112.613281 120.644531 -112.125 120.09375 -111.8125 C 119.539062 -111.507812 119.144531 -111.234375 118.90625 -110.984375 C 116.9375 -109.878906 115.335938 -108.648438 114.109375 -107.296875 C 112.890625 -105.953125 111.847656 -103.867188 110.984375 -101.046875 L 92.953125 -37.359375 C 89.265625 -24.359375 83.003906 -14.695312 74.171875 -8.375 C 65.335938 -2.050781 53.863281 1.109375 39.75 1.109375 C 30.300781 1.109375 22.296875 -0.269531 15.734375 -3.03125 C 9.171875 -5.789062 4.234375 -9.503906 0.921875 -14.171875 C -2.390625 -18.835938 -4.046875 -23.929688 -4.046875 -29.453125 C -4.046875 -32.148438 -3.675781 -34.785156 -2.9375 -37.359375 C -1.34375 -42.878906 1.382812 -47.050781 5.25 -49.875 C 9.113281 -52.695312 13.4375 -54.109375 18.21875 -54.109375 C 23.738281 -54.109375 27.972656 -52.453125 30.921875 -49.140625 C 33.867188 -45.828125 35.34375 -41.59375 35.34375 -36.4375 C 35.34375 -33.863281 34.972656 -31.289062 34.234375 -28.71875 C 32.765625 -23.5625 30.003906 -19.753906 25.953125 -17.296875 C 27.910156 -16.078125 30.179688 -15.46875 32.765625 -15.46875 C 35.335938 -15.46875 37.601562 -16.753906 39.5625 -19.328125 C 41.53125 -21.898438 43.191406 -25.519531 44.546875 -30.1875 Z"/>
    </g>

  </g>
</svg>