<svg xmlns="http://www.w3.org/2000/svg" xmlns:xlink="http://www.w3.org/1999/xlink" width="250" zoomAndPan="magnify" viewBox="0 0 187.5 187.499992" height="250" preserveAspectRatio="xMidYMid meet" version="1.0"><defs><g/><clipPath id="8eb181d8c2"><rect x="0" width="139" y="0" height="187"/></clipPath><clipPath id="f9fcb454aa"><rect x="0" width="133" y="0" height="187"/></clipPath></defs><path fill="#ffffff" d="M 0 0 L 187 0 L 187 187 L 0 187 Z M 0 0 " fill-opacity="1" fill-rule="nonzero"/><path fill="#ffffff" d="M 0 0 L 187 0 L 187 187 L 0 187 Z M 0 0 " fill-opacity="1" fill-rule="nonzero"/><g transform="matrix(1, 0, 0, 1, 18, 0)"><g clip-path="url(#8eb181d8c2)"><g fill="#000000" fill-opacity="1"><g transform="translate(1.065814, 120.239695)"><g><path d="M 51.3125 1.046875 C 43.570312 1.046875 36.550781 -0.65625 30.25 -4.0625 C 23.945312 -7.476562 18.945312 -12.507812 15.25 -19.15625 C 11.550781 -25.800781 9.703125 -33.75 9.703125 -43 C 9.703125 -50.039062 10.914062 -57.894531 13.34375 -66.5625 C 18.664062 -85.0625 27.015625 -98.125 38.390625 -105.75 C 49.773438 -113.375 61.941406 -117.1875 74.890625 -117.1875 C 86.679688 -117.1875 97.316406 -112.910156 106.796875 -104.359375 L 111.984375 -109.390625 C 114.878906 -111.816406 117.363281 -113.488281 119.4375 -114.40625 C 121.519531 -115.332031 123.945312 -115.796875 126.71875 -115.796875 C 129.726562 -115.796875 132.15625 -115.070312 134 -113.625 C 135.851562 -112.1875 136.78125 -110.253906 136.78125 -107.828125 C 136.78125 -106.898438 136.609375 -105.800781 136.265625 -104.53125 L 130.015625 -82.6875 C 128.859375 -78.988281 127.5 -76.390625 125.9375 -74.890625 C 124.382812 -73.390625 122.28125 -72.640625 119.625 -72.640625 C 116.84375 -72.640625 114.382812 -73.332031 112.25 -74.71875 C 110.113281 -76.101562 107.65625 -78.585938 104.875 -82.171875 C 101.175781 -87.023438 97.910156 -90.460938 95.078125 -92.484375 C 92.253906 -94.503906 89.164062 -95.515625 85.8125 -95.515625 C 80.613281 -95.515625 75.671875 -92.882812 70.984375 -87.625 C 66.304688 -82.375 62.234375 -73.625 58.765625 -61.375 C 56.566406 -53.394531 55.46875 -46.515625 55.46875 -40.734375 C 55.46875 -34.609375 56.648438 -29.957031 59.015625 -26.78125 C 61.390625 -23.601562 64.71875 -22.015625 69 -22.015625 C 72.695312 -22.015625 75.554688 -22.878906 77.578125 -24.609375 C 79.597656 -26.347656 81.1875 -29.351562 82.34375 -33.625 L 83.5625 -37.96875 C 84.132812 -40.28125 84.421875 -41.835938 84.421875 -42.640625 C 84.421875 -44.035156 84.101562 -45.019531 83.46875 -45.59375 C 82.832031 -46.164062 81.765625 -46.800781 80.265625 -47.5 L 74.203125 -49.75 C 71.535156 -50.789062 70.203125 -52.695312 70.203125 -55.46875 C 70.203125 -56.28125 70.265625 -56.914062 70.390625 -57.375 C 70.847656 -58.882812 71.679688 -59.984375 72.890625 -60.671875 C 74.109375 -61.367188 75.988281 -61.71875 78.53125 -61.71875 L 130.890625 -61.546875 C 134.703125 -61.546875 136.609375 -60.332031 136.609375 -57.90625 C 136.609375 -57.4375 136.492188 -56.742188 136.265625 -55.828125 C 135.796875 -54.085938 135.039062 -52.695312 134 -51.65625 C 132.96875 -50.613281 131.46875 -49.578125 129.5 -48.546875 L 124.984375 -45.9375 C 123.835938 -45.25 122.972656 -44.585938 122.390625 -43.953125 C 121.816406 -43.316406 121.410156 -42.535156 121.171875 -41.609375 L 111.984375 -9.53125 C 110.828125 -5.71875 109.523438 -3.175781 108.078125 -1.90625 C 106.640625 -0.632812 104.878906 0 102.796875 0 L 95.515625 0 C 92.742188 0 90.460938 -0.578125 88.671875 -1.734375 C 86.878906 -2.890625 85.40625 -5.144531 84.25 -8.5 L 82.515625 -13.515625 C 74.191406 -3.804688 63.789062 1.046875 51.3125 1.046875 Z M 51.3125 1.046875 "/></g></g></g></g></g><g transform="matrix(1, 0, 0, 1, 27, 0)"><g clip-path="url(#f9fcb454aa)"><g fill="#000000" fill-opacity="1"><g transform="translate(5.227567, 183.428082)"><g><path d="M 65.875 -101.34375 C 66.125 -102.101562 66.25 -103.109375 66.25 -104.359375 C 66.25 -106.359375 65.71875 -107.984375 64.65625 -109.234375 C 63.59375 -110.484375 61.9375 -111.859375 59.6875 -113.359375 C 57.8125 -114.734375 56.460938 -115.921875 55.640625 -116.921875 C 54.828125 -117.929688 54.613281 -119.125 55 -120.5 C 55.375 -122.25 56.3125 -123.4375 57.8125 -124.0625 C 59.3125 -124.6875 61.6875 -125 64.9375 -125 L 118.25 -125 C 120.875 -125 122.90625 -124.5625 124.34375 -123.6875 C 125.78125 -122.8125 126.5 -121.6875 126.5 -120.3125 C 126.5 -119.6875 126.3125 -118.875 125.9375 -117.875 C 125.5625 -116.988281 125.03125 -116.203125 124.34375 -115.515625 C 123.65625 -114.828125 123.03125 -114.328125 122.46875 -114.015625 C 121.90625 -113.703125 121.5 -113.421875 121.25 -113.171875 C 119.25 -112.046875 117.617188 -110.796875 116.359375 -109.421875 C 115.109375 -108.046875 114.046875 -105.921875 113.171875 -103.046875 L 94.78125 -38.09375 C 91.03125 -24.832031 84.648438 -14.976562 75.640625 -8.53125 C 66.628906 -2.09375 54.929688 1.125 40.546875 1.125 C 30.910156 1.125 22.742188 -0.28125 16.046875 -3.09375 C 9.347656 -5.90625 4.3125 -9.6875 0.9375 -14.4375 C -2.4375 -19.195312 -4.125 -24.394531 -4.125 -30.03125 C -4.125 -32.78125 -3.75 -35.46875 -3 -38.09375 C -1.375 -43.726562 1.40625 -47.984375 5.34375 -50.859375 C 9.289062 -53.742188 13.703125 -55.1875 18.578125 -55.1875 C 24.210938 -55.1875 28.53125 -53.492188 31.53125 -50.109375 C 34.53125 -46.734375 36.03125 -42.414062 36.03125 -37.15625 C 36.03125 -34.53125 35.65625 -31.90625 34.90625 -29.28125 C 33.40625 -24.019531 30.59375 -20.140625 26.46875 -17.640625 C 28.46875 -16.390625 30.78125 -15.765625 33.40625 -15.765625 C 36.03125 -15.765625 38.34375 -17.078125 40.34375 -19.703125 C 42.351562 -22.335938 44.046875 -26.03125 45.421875 -30.78125 Z M 65.875 -101.34375 "/></g></g></g></g></g></svg>