<svg xmlns="http://www.w3.org/2000/svg" viewBox="0 0 910 148">
  <path d="M4.18,33.35C1.2,34.85,0,37.26,0,40.55v67.12c0,3.29,1.2,5.4,4.18,7.2l56.64,32.26a9.38,9.38,0,0,0,8.36,0l56.64-32.26c3-1.8,4.18-3.91,4.18-7.2V40.55c0-3.89-1.81-6-4.18-7.2L69.18,1.09a9.38,9.38,0,0,0-8.36,0Z" fill='#14bf96'/>
  <g fill='#fff'>
    <path d="M114.73,60.05c-26.88.14-48.64,22.71-48.64,50.55v1.18H64V110.6C64,82.76,42.2,60.19,15.27,60.05A52.06,52.06,0,0,0,15,65.37c0,21.77,13.33,40.33,32,47.45A51.24,51.24,0,0,0,65,116.05,52,52,0,0,0,83,112.82c18.66-7.12,32-25.68,32-47.45A52.06,52.06,0,0,0,114.73,60.05Z"/>
    <circle cx="65" cy="47.29" r="16" transform="translate(-14.4 59.81) rotate(-45)"/>
  </g>
  
</svg>