<svg xmlns="http://www.w3.org/2000/svg" xmlns:xlink="http://www.w3.org/1999/xlink" width="500" zoomAndPan="magnify" viewBox="0 0 375 374.999991" height="500" preserveAspectRatio="xMidYMid meet" version="1.0"><defs><clipPath id="eaaa3f1687"><path d="M 113 146.320312 L 262.5 146.320312 L 262.5 296 L 113 296 Z M 113 146.320312 " clip-rule="nonzero"/></clipPath></defs><rect x="-37.5" width="450" fill="#ffffff" y="-37.499999" height="449.999989" fill-opacity="1"/><rect x="-37.5" width="450" fill="#ffffff" y="-37.499999" height="449.999989" fill-opacity="1"/><g clip-path="url(#eaaa3f1687)"><path fill="#ffffff" d="M 260.152344 220.964844 C 259.789062 220.835938 259.410156 220.769531 259.019531 220.761719 C 258.632812 220.753906 258.253906 220.808594 257.882812 220.921875 C 257.511719 221.039062 257.167969 221.207031 256.851562 221.433594 C 256.535156 221.660156 256.261719 221.929688 256.03125 222.242188 C 255.503906 222.964844 254.957031 223.667969 254.390625 224.359375 C 253.824219 225.050781 253.238281 225.726562 252.636719 226.386719 C 252.03125 227.046875 251.414062 227.6875 250.777344 228.316406 C 250.140625 228.941406 249.484375 229.550781 248.816406 230.140625 C 248.144531 230.730469 247.460938 231.304688 246.757812 231.859375 C 246.058594 232.414062 245.34375 232.945312 244.613281 233.460938 C 243.882812 233.976562 243.140625 234.472656 242.382812 234.949219 C 241.628906 235.425781 240.859375 235.878906 240.078125 236.3125 C 239.296875 236.746094 238.503906 237.160156 237.703125 237.550781 C 236.898438 237.941406 236.085938 238.3125 235.261719 238.660156 C 234.441406 239.007812 233.609375 239.332031 232.769531 239.636719 C 231.929688 239.9375 231.078125 240.21875 230.222656 240.476562 C 229.367188 240.734375 228.507812 240.96875 227.640625 241.179688 C 226.769531 241.390625 225.898438 241.574219 225.019531 241.738281 C 224.140625 241.902344 223.257812 242.042969 222.375 242.160156 C 221.488281 242.277344 220.597656 242.367188 219.707031 242.4375 C 218.816406 242.503906 217.925781 242.550781 217.03125 242.570312 C 216.140625 242.589844 215.246094 242.585938 214.351562 242.558594 C 213.460938 242.53125 212.570312 242.480469 211.679688 242.402344 C 210.789062 242.328125 209.902344 242.226562 209.015625 242.105469 C 208.132812 241.980469 207.25 241.832031 206.375 241.664062 C 205.496094 241.492188 204.625 241.296875 203.757812 241.078125 C 202.890625 240.859375 202.03125 240.621094 201.179688 240.355469 C 200.324219 240.089844 199.480469 239.804688 198.640625 239.496094 C 197.804688 239.183594 196.976562 238.851562 196.15625 238.5 C 195.335938 238.144531 194.523438 237.769531 193.726562 237.371094 C 192.925781 236.972656 192.136719 236.550781 191.359375 236.113281 C 190.582031 235.671875 189.816406 235.210938 189.066406 234.726562 C 188.3125 234.246094 187.574219 233.746094 186.847656 233.222656 C 186.125 232.703125 185.414062 232.160156 184.714844 231.601562 C 184.019531 231.042969 183.339844 230.464844 182.675781 229.867188 C 182.007812 229.269531 181.359375 228.65625 180.730469 228.023438 C 180.097656 227.394531 179.480469 226.746094 178.886719 226.082031 C 178.289062 225.417969 177.710938 224.738281 177.148438 224.042969 C 176.589844 223.34375 176.046875 222.636719 175.523438 221.910156 C 175.003906 221.1875 174.5 220.449219 174.015625 219.695312 C 173.535156 218.945312 173.074219 218.179688 172.632812 217.402344 C 172.191406 216.625 171.769531 215.835938 171.371094 215.039062 C 170.972656 214.238281 170.59375 213.429688 170.238281 212.609375 C 169.886719 211.789062 169.550781 210.960938 169.242188 210.125 C 168.929688 209.285156 168.644531 208.441406 168.378906 207.585938 C 168.113281 206.734375 167.871094 205.875 167.652344 205.007812 C 167.433594 204.140625 167.238281 203.269531 167.066406 202.394531 C 166.894531 201.519531 166.746094 200.636719 166.621094 199.753906 C 166.496094 198.867188 166.394531 197.980469 166.320312 197.089844 C 166.242188 196.199219 166.191406 195.308594 166.160156 194.414062 C 166.132812 193.523438 166.128906 192.628906 166.148438 191.738281 C 166.167969 190.84375 166.210938 189.953125 166.277344 189.0625 C 166.34375 188.167969 166.4375 187.28125 166.550781 186.394531 C 166.667969 185.507812 166.804688 184.628906 166.96875 183.75 C 167.132812 182.871094 167.320312 181.996094 167.527344 181.128906 C 167.738281 180.261719 167.972656 179.398438 168.226562 178.542969 C 168.484375 177.6875 168.761719 176.839844 169.066406 175.996094 C 169.367188 175.15625 169.691406 174.324219 170.039062 173.5 C 170.386719 172.679688 170.753906 171.863281 171.144531 171.0625 C 171.535156 170.257812 171.945312 169.464844 172.378906 168.683594 C 172.8125 167.902344 173.269531 167.132812 173.742188 166.378906 C 174.21875 165.621094 174.710938 164.878906 175.226562 164.148438 C 175.742188 163.417969 176.273438 162.699219 176.828125 162 C 177.382812 161.296875 177.953125 160.613281 178.542969 159.941406 C 179.132812 159.269531 179.742188 158.617188 180.367188 157.980469 C 180.992188 157.339844 181.636719 156.71875 182.292969 156.117188 C 182.953125 155.511719 183.628906 154.929688 184.316406 154.363281 C 185.007812 153.792969 185.714844 153.246094 186.433594 152.71875 C 186.761719 152.507812 187.046875 152.25 187.289062 151.945312 C 187.527344 151.640625 187.714844 151.304688 187.84375 150.9375 C 187.972656 150.570312 188.039062 150.191406 188.039062 149.800781 C 188.042969 149.414062 187.980469 149.035156 187.855469 148.664062 C 187.726562 148.308594 187.546875 147.984375 187.316406 147.6875 C 187.082031 147.386719 186.808594 147.132812 186.496094 146.921875 C 186.183594 146.710938 185.847656 146.554688 185.484375 146.453125 C 185.121094 146.347656 184.75 146.304688 184.371094 146.320312 C 183.171875 146.375 181.976562 146.460938 180.78125 146.574219 C 179.589844 146.6875 178.398438 146.828125 177.210938 147 C 176.023438 147.171875 174.839844 147.371094 173.664062 147.597656 C 172.484375 147.828125 171.3125 148.082031 170.148438 148.367188 C 168.980469 148.652344 167.824219 148.964844 166.671875 149.304688 C 165.523438 149.644531 164.382812 150.011719 163.25 150.40625 C 162.117188 150.800781 160.992188 151.222656 159.882812 151.671875 C 158.769531 152.121094 157.667969 152.59375 156.578125 153.097656 C 155.488281 153.597656 154.410156 154.128906 153.347656 154.679688 C 152.28125 155.234375 151.234375 155.8125 150.195312 156.417969 C 149.160156 157.023438 148.136719 157.652344 147.132812 158.304688 C 146.125 158.957031 145.136719 159.636719 144.164062 160.335938 C 143.191406 161.035156 142.234375 161.761719 141.292969 162.507812 C 140.355469 163.253906 139.4375 164.023438 138.535156 164.816406 C 137.632812 165.605469 136.75 166.417969 135.886719 167.253906 C 135.027344 168.085938 134.183594 168.941406 133.363281 169.816406 C 132.539062 170.691406 131.742188 171.582031 130.960938 172.496094 C 130.183594 173.410156 129.429688 174.339844 128.695312 175.289062 C 127.960938 176.238281 127.25 177.203125 126.5625 178.1875 C 125.875 179.171875 125.210938 180.171875 124.574219 181.1875 C 123.933594 182.199219 123.320312 183.230469 122.730469 184.277344 C 122.140625 185.320312 121.578125 186.378906 121.039062 187.453125 C 120.5 188.523438 119.988281 189.609375 119.5 190.703125 C 119.015625 191.800781 118.554688 192.910156 118.121094 194.027344 C 117.6875 195.144531 117.285156 196.273438 116.90625 197.414062 C 116.527344 198.550781 116.175781 199.699219 115.851562 200.851562 C 115.527344 202.007812 115.230469 203.171875 114.964844 204.339844 C 114.695312 205.507812 114.457031 206.683594 114.246094 207.867188 C 114.035156 209.046875 113.851562 210.230469 113.699219 211.421875 C 113.542969 212.609375 113.417969 213.804688 113.324219 215 C 113.226562 216.195312 113.15625 217.394531 113.117188 218.59375 C 113.078125 219.789062 113.070312 220.988281 113.089844 222.191406 C 113.105469 223.390625 113.15625 224.585938 113.230469 225.785156 C 113.308594 226.980469 113.414062 228.175781 113.546875 229.367188 C 113.679688 230.5625 113.84375 231.75 114.035156 232.933594 C 114.226562 234.117188 114.445312 235.296875 114.691406 236.472656 C 114.941406 237.644531 115.214844 238.8125 115.519531 239.972656 C 115.824219 241.132812 116.15625 242.285156 116.515625 243.429688 C 116.875 244.574219 117.261719 245.710938 117.675781 246.835938 C 118.089844 247.960938 118.53125 249.078125 118.996094 250.179688 C 119.464844 251.285156 119.957031 252.378906 120.480469 253.460938 C 121 254.542969 121.546875 255.609375 122.117188 256.664062 C 122.6875 257.71875 123.285156 258.757812 123.90625 259.785156 C 124.527344 260.808594 125.175781 261.820312 125.84375 262.816406 C 126.515625 263.8125 127.210938 264.789062 127.925781 265.75 C 128.644531 266.710938 129.382812 267.65625 130.148438 268.582031 C 130.910156 269.507812 131.695312 270.414062 132.5 271.300781 C 133.308594 272.191406 134.136719 273.058594 134.984375 273.90625 C 135.832031 274.753906 136.699219 275.582031 137.589844 276.390625 C 138.476562 277.195312 139.382812 277.980469 140.308594 278.742188 C 141.234375 279.507812 142.179688 280.246094 143.140625 280.964844 C 144.101562 281.679688 145.078125 282.375 146.074219 283.046875 C 147.070312 283.714844 148.082031 284.363281 149.105469 284.984375 C 150.132812 285.605469 151.171875 286.203125 152.226562 286.773438 C 153.28125 287.34375 154.351562 287.890625 155.429688 288.410156 C 156.511719 288.933594 157.605469 289.425781 158.710938 289.894531 C 159.8125 290.359375 160.929688 290.800781 162.054688 291.214844 C 163.179688 291.628906 164.316406 292.015625 165.460938 292.375 C 166.605469 292.734375 167.757812 293.066406 168.917969 293.371094 C 170.078125 293.675781 171.246094 293.949219 172.417969 294.199219 C 173.59375 294.445312 174.773438 294.664062 175.957031 294.855469 C 177.140625 295.046875 178.328125 295.210938 179.523438 295.34375 C 180.714844 295.476562 181.910156 295.582031 183.105469 295.660156 C 184.304688 295.734375 185.5 295.785156 186.699219 295.800781 C 187.902344 295.820312 189.101562 295.8125 190.296875 295.773438 C 191.496094 295.734375 192.695312 295.664062 193.890625 295.566406 C 195.085938 295.472656 196.28125 295.347656 197.46875 295.191406 C 198.660156 295.039062 199.84375 294.855469 201.023438 294.644531 C 202.207031 294.433594 203.382812 294.195312 204.550781 293.925781 C 205.71875 293.660156 206.882812 293.363281 208.039062 293.039062 C 209.191406 292.714844 210.339844 292.363281 211.476562 291.984375 C 212.617188 291.605469 213.746094 291.203125 214.863281 290.769531 C 215.980469 290.335938 217.089844 289.875 218.1875 289.390625 C 219.28125 288.902344 220.367188 288.390625 221.4375 287.851562 C 222.511719 287.3125 223.570312 286.75 224.613281 286.160156 C 225.660156 285.570312 226.691406 284.957031 227.703125 284.316406 C 228.71875 283.679688 229.71875 283.015625 230.703125 282.328125 C 231.6875 281.640625 232.652344 280.929688 233.601562 280.195312 C 234.550781 279.460938 235.480469 278.707031 236.394531 277.929688 C 237.308594 277.148438 238.199219 276.351562 239.074219 275.527344 C 239.949219 274.707031 240.804688 273.863281 241.636719 273.003906 C 242.472656 272.140625 243.285156 271.257812 244.074219 270.355469 C 244.867188 269.453125 245.636719 268.535156 246.382812 267.597656 C 247.128906 266.65625 247.855469 265.699219 248.554688 264.726562 C 249.253906 263.753906 249.933594 262.765625 250.585938 261.757812 C 251.238281 260.753906 251.867188 259.730469 252.472656 258.695312 C 253.078125 257.65625 253.65625 256.609375 254.210938 255.542969 C 254.761719 254.480469 255.292969 253.402344 255.792969 252.3125 C 256.296875 251.222656 256.769531 250.121094 257.21875 249.007812 C 257.667969 247.898438 258.089844 246.773438 258.484375 245.640625 C 258.878906 244.507812 259.246094 243.367188 259.585938 242.214844 C 259.925781 241.066406 260.238281 239.910156 260.523438 238.742188 C 260.808594 237.578125 261.0625 236.40625 261.292969 235.226562 C 261.519531 234.050781 261.71875 232.867188 261.890625 231.679688 C 262.0625 230.492188 262.203125 229.300781 262.316406 228.109375 C 262.429688 226.914062 262.515625 225.71875 262.570312 224.519531 C 262.589844 224.132812 262.550781 223.75 262.445312 223.375 C 262.339844 223.003906 262.179688 222.65625 261.960938 222.335938 C 261.742188 222.011719 261.480469 221.734375 261.167969 221.5 C 260.859375 221.265625 260.523438 221.085938 260.152344 220.964844 Z M 187.855469 288.640625 C 185.792969 288.632812 183.738281 288.53125 181.683594 288.335938 C 179.632812 288.140625 177.59375 287.851562 175.566406 287.472656 C 173.539062 287.089844 171.535156 286.617188 169.550781 286.050781 C 167.570312 285.484375 165.617188 284.832031 163.695312 284.089844 C 161.769531 283.34375 159.886719 282.515625 158.039062 281.597656 C 156.191406 280.683594 154.390625 279.683594 152.632812 278.605469 C 150.878906 277.523438 149.175781 276.367188 147.523438 275.128906 C 145.875 273.894531 144.285156 272.585938 142.753906 271.203125 C 141.222656 269.820312 139.757812 268.371094 138.359375 266.859375 C 136.960938 265.34375 135.636719 263.765625 134.382812 262.128906 C 133.128906 260.492188 131.949219 258.804688 130.851562 257.058594 C 129.75 255.316406 128.734375 253.523438 127.796875 251.6875 C 126.863281 249.851562 126.011719 247.972656 125.246094 246.058594 C 124.484375 244.144531 123.808594 242.199219 123.222656 240.222656 C 122.632812 238.246094 122.140625 236.246094 121.734375 234.222656 C 121.332031 232.203125 121.019531 230.167969 120.800781 228.117188 C 120.585938 226.066406 120.460938 224.011719 120.429688 221.949219 C 120.398438 219.886719 120.464844 217.828125 120.621094 215.773438 C 120.78125 213.71875 121.03125 211.671875 121.378906 209.640625 C 121.722656 207.605469 122.160156 205.59375 122.6875 203.601562 C 123.21875 201.609375 123.835938 199.644531 124.542969 197.707031 C 125.253906 195.773438 126.046875 193.871094 126.929688 192.007812 C 127.8125 190.144531 128.777344 188.324219 129.828125 186.550781 C 130.875 184.773438 132 183.050781 133.207031 181.378906 C 134.414062 179.707031 135.695312 178.09375 137.046875 176.539062 C 138.402344 174.980469 139.820312 173.492188 141.3125 172.066406 C 142.800781 170.640625 144.351562 169.285156 145.964844 168.003906 C 147.578125 166.71875 149.25 165.511719 150.972656 164.378906 C 152.695312 163.25 154.46875 162.199219 156.289062 161.230469 C 158.109375 160.261719 159.96875 159.375 161.867188 158.578125 C 163.769531 157.777344 165.703125 157.066406 167.667969 156.445312 C 169.632812 155.824219 171.625 155.289062 173.636719 154.851562 C 172.425781 156.1875 171.28125 157.578125 170.203125 159.023438 C 169.121094 160.46875 168.113281 161.964844 167.179688 163.507812 C 166.242188 165.046875 165.378906 166.632812 164.59375 168.253906 C 163.808594 169.878906 163.101562 171.535156 162.472656 173.226562 C 161.84375 174.917969 161.296875 176.636719 160.832031 178.378906 C 160.367188 180.121094 159.984375 181.882812 159.6875 183.664062 C 159.390625 185.441406 159.179688 187.230469 159.050781 189.03125 C 158.925781 190.832031 158.882812 192.632812 158.925781 194.4375 C 158.972656 196.242188 159.101562 198.039062 159.316406 199.828125 C 159.53125 201.621094 159.832031 203.398438 160.21875 205.160156 C 160.601562 206.921875 161.070312 208.664062 161.621094 210.382812 C 162.167969 212.101562 162.800781 213.789062 163.511719 215.445312 C 164.222656 217.105469 165.011719 218.726562 165.875 220.308594 C 166.742188 221.890625 167.679688 223.429688 168.691406 224.925781 C 169.703125 226.417969 170.78125 227.859375 171.929688 229.25 C 173.078125 230.644531 174.292969 231.976562 175.566406 233.25 C 176.84375 234.527344 178.175781 235.738281 179.566406 236.886719 C 180.960938 238.039062 182.402344 239.117188 183.894531 240.128906 C 185.390625 241.140625 186.929688 242.078125 188.511719 242.945312 C 190.09375 243.808594 191.714844 244.597656 193.375 245.308594 C 195.03125 246.019531 196.71875 246.648438 198.4375 247.199219 C 200.15625 247.75 201.898438 248.21875 203.660156 248.601562 C 205.421875 248.988281 207.199219 249.285156 208.992188 249.503906 C 210.78125 249.71875 212.578125 249.847656 214.382812 249.890625 C 216.1875 249.9375 217.988281 249.894531 219.789062 249.769531 C 221.585938 249.640625 223.375 249.429688 225.15625 249.132812 C 226.9375 248.832031 228.695312 248.453125 230.441406 247.988281 C 232.183594 247.523438 233.902344 246.976562 235.59375 246.347656 C 237.28125 245.71875 238.941406 245.011719 240.5625 244.226562 C 242.1875 243.441406 243.769531 242.578125 245.3125 241.640625 C 246.855469 240.703125 248.347656 239.695312 249.792969 238.617188 C 251.242188 237.539062 252.632812 236.394531 253.96875 235.183594 C 253.570312 237.058594 253.09375 238.914062 252.539062 240.75 C 251.980469 242.582031 251.347656 244.390625 250.636719 246.171875 C 249.925781 247.953125 249.140625 249.699219 248.28125 251.414062 C 247.421875 253.128906 246.492188 254.804688 245.492188 256.4375 C 244.488281 258.074219 243.417969 259.664062 242.28125 261.207031 C 241.144531 262.75 239.941406 264.242188 238.675781 265.683594 C 237.410156 267.125 236.085938 268.507812 234.703125 269.835938 C 233.320312 271.164062 231.882812 272.433594 230.394531 273.636719 C 228.902344 274.84375 227.363281 275.984375 225.773438 277.058594 C 224.1875 278.132812 222.554688 279.136719 220.882812 280.070312 C 219.207031 281.007812 217.496094 281.871094 215.75 282.660156 C 214 283.449219 212.222656 284.164062 210.414062 284.800781 C 208.605469 285.4375 206.773438 285.996094 204.917969 286.480469 C 203.0625 286.960938 201.191406 287.363281 199.300781 287.683594 C 197.410156 288.007812 195.507812 288.246094 193.597656 288.40625 C 191.6875 288.566406 189.773438 288.644531 187.855469 288.640625 Z M 187.855469 288.640625 " fill-opacity="1" fill-rule="nonzero"/></g></svg>