<svg xmlns="http://www.w3.org/2000/svg" xmlns:xlink="http://www.w3.org/1999/xlink" width="500" zoomAndPan="magnify" viewBox="0 0 375 374.999991" height="500" preserveAspectRatio="xMidYMid meet" version="1.0"><defs><clipPath id="c936ead766"><path d="M 183 134.15625 L 192 134.15625 L 192 159 L 183 159 Z M 183 134.15625 " clip-rule="nonzero"/></clipPath><clipPath id="529cc6f369"><path d="M 183 260 L 192 260 L 192 284.15625 L 183 284.15625 Z M 183 260 " clip-rule="nonzero"/></clipPath><clipPath id="dcfaa94877"><path d="M 112.5 205 L 137 205 L 137 214 L 112.5 214 Z M 112.5 205 " clip-rule="nonzero"/></clipPath><clipPath id="e0856a3c0f"><path d="M 238 205 L 262.5 205 L 262.5 214 L 238 214 Z M 238 205 " clip-rule="nonzero"/></clipPath></defs><path fill="#ffffff" d="M 187.5 169.585938 C 165.746094 169.585938 147.929688 187.402344 147.929688 209.15625 C 147.929688 230.910156 165.746094 248.726562 187.5 248.726562 C 209.253906 248.726562 227.070312 230.910156 227.070312 209.15625 C 227.070312 187.402344 209.253906 169.585938 187.5 169.585938 Z M 187.5 240.441406 C 170.304688 240.441406 156.214844 226.351562 156.214844 209.15625 C 156.214844 191.960938 170.304688 177.871094 187.5 177.871094 C 204.695312 177.871094 218.785156 191.960938 218.785156 209.15625 C 218.785156 226.351562 204.695312 240.441406 187.5 240.441406 Z M 187.5 240.441406 " fill-opacity="1" fill-rule="nonzero"/><g clip-path="url(#c936ead766)"><path fill="#ffffff" d="M 187.5 158.191406 C 189.777344 158.191406 191.644531 156.324219 191.644531 154.046875 L 191.644531 138.300781 C 191.644531 136.019531 189.777344 134.15625 187.5 134.15625 C 185.222656 134.15625 183.355469 136.019531 183.355469 138.300781 L 183.355469 154.046875 C 183.355469 156.324219 185.222656 158.191406 187.5 158.191406 Z M 187.5 158.191406 " fill-opacity="1" fill-rule="nonzero"/></g><g clip-path="url(#529cc6f369)"><path fill="#ffffff" d="M 187.5 260.125 C 185.222656 260.125 183.355469 261.988281 183.355469 264.265625 L 183.355469 280.011719 C 183.355469 282.292969 185.222656 284.15625 187.5 284.15625 C 189.777344 284.15625 191.644531 282.292969 191.644531 280.011719 L 191.644531 264.265625 C 191.644531 261.988281 189.777344 260.125 187.5 260.125 Z M 187.5 260.125 " fill-opacity="1" fill-rule="nonzero"/></g><path fill="#ffffff" d="M 226.449219 174.351562 C 227.484375 174.351562 228.523438 173.933594 229.351562 173.105469 L 240.539062 161.917969 C 242.195312 160.261719 242.195312 157.773438 240.539062 156.117188 C 238.882812 154.460938 236.394531 154.460938 234.738281 156.117188 L 223.550781 167.304688 C 221.890625 168.964844 221.890625 171.449219 223.550781 173.105469 C 224.378906 173.933594 225.414062 174.351562 226.449219 174.351562 Z M 226.449219 174.351562 " fill-opacity="1" fill-rule="nonzero"/><path fill="#ffffff" d="M 145.648438 245.207031 L 134.460938 256.394531 C 132.804688 258.050781 132.804688 260.539062 134.460938 262.195312 C 135.289062 263.023438 136.324219 263.4375 137.363281 263.4375 C 138.398438 263.4375 139.433594 263.023438 140.261719 262.195312 L 151.449219 251.007812 C 153.109375 249.351562 153.109375 246.863281 151.449219 245.207031 C 149.792969 243.546875 147.304688 243.546875 145.648438 245.207031 Z M 145.648438 245.207031 " fill-opacity="1" fill-rule="nonzero"/><g clip-path="url(#dcfaa94877)"><path fill="#ffffff" d="M 136.53125 209.15625 C 136.53125 206.878906 134.667969 205.011719 132.390625 205.011719 L 116.644531 205.011719 C 114.363281 205.011719 112.5 206.878906 112.5 209.15625 C 112.5 211.433594 114.363281 213.300781 116.644531 213.300781 L 132.390625 213.300781 C 134.667969 213.300781 136.53125 211.433594 136.53125 209.15625 Z M 136.53125 209.15625 " fill-opacity="1" fill-rule="nonzero"/></g><g clip-path="url(#e0856a3c0f)"><path fill="#ffffff" d="M 258.355469 205.011719 L 242.609375 205.011719 C 240.332031 205.011719 238.46875 206.878906 238.46875 209.15625 C 238.46875 211.433594 240.332031 213.300781 242.609375 213.300781 L 258.355469 213.300781 C 260.636719 213.300781 262.5 211.433594 262.5 209.15625 C 262.5 206.878906 260.636719 205.011719 258.355469 205.011719 Z M 258.355469 205.011719 " fill-opacity="1" fill-rule="nonzero"/></g><path fill="#ffffff" d="M 145.648438 173.105469 C 146.476562 173.933594 147.515625 174.351562 148.550781 174.351562 C 149.585938 174.351562 150.621094 173.933594 151.449219 173.105469 C 153.109375 171.449219 153.109375 168.964844 151.449219 167.304688 L 140.261719 156.117188 C 138.605469 154.460938 136.117188 154.460938 134.460938 156.117188 C 132.804688 157.773438 132.804688 160.261719 134.460938 161.917969 Z M 145.648438 173.105469 " fill-opacity="1" fill-rule="nonzero"/><path fill="#ffffff" d="M 229.351562 245.207031 C 227.691406 243.546875 225.207031 243.546875 223.550781 245.207031 C 221.890625 246.863281 221.890625 249.351562 223.550781 251.007812 L 234.738281 262.195312 C 235.566406 263.023438 236.601562 263.4375 237.636719 263.4375 C 238.675781 263.4375 239.710938 263.023438 240.539062 262.195312 C 242.195312 260.539062 242.195312 258.050781 240.539062 256.394531 Z M 229.351562 245.207031 " fill-opacity="1" fill-rule="nonzero"/></svg>