<svg xmlns="http://www.w3.org/2000/svg" xmlns:xlink="http://www.w3.org/1999/xlink" width="534" zoomAndPan="magnify" viewBox="0 0 400.5 313.499995" height="418" preserveAspectRatio="xMidYMid meet" version="1.0"><defs><clipPath id="073890a01b"><path d="M 1 15 L 399.929688 15 L 399.929688 303.695312 L 1 303.695312 Z M 1 15 " clip-rule="nonzero"/></clipPath></defs><g clip-path="url(#073890a01b)"><path fill="#ffffff" d="M 337.59375 303.546875 L 384.0625 303.546875 C 384.0625 303.546875 385.722656 302.28125 385.820312 301.496094 C 385.820312 301.496094 388.214844 301.59375 388.601562 302.714844 C 388.601562 302.714844 388.894531 299.492188 385.773438 298.125 C 382.652344 296.757812 382.941406 296.171875 377.621094 294.121094 C 372.296875 292.066406 360.050781 293.777344 354.925781 293.292969 C 349.800781 292.808594 343.800781 290.558594 346.921875 277.1875 C 350.046875 263.816406 356.6875 242.144531 368.980469 228.28125 C 380.765625 215.003906 388.246094 192.765625 384.734375 176.335938 C 375.835938 179.90625 366.949219 180.011719 366.949219 180.011719 C 385.5 176.515625 394.816406 167.796875 393.769531 152.34375 C 392.980469 140.664062 391.617188 124.066406 386.636719 113.054688 C 386.636719 113.054688 389.679688 117.25 391.847656 123.59375 C 392.464844 120.339844 393.464844 115.621094 394.9375 110.082031 C 397.769531 99.441406 399.921875 76.113281 399.527344 66.058594 C 399.136719 56 390.15625 70.9375 387.519531 76.796875 C 386.21875 79.6875 376.523438 100.8125 376.507812 101.386719 C 376.507812 101.386719 376.625 98.941406 377.238281 96.789062 C 372.433594 100.746094 354.117188 101.363281 349.042969 97.566406 C 349.523438 99.621094 349.851562 101.335938 349.851562 101.335938 C 344.164062 90.683594 343.15625 77.039062 335.386719 67.132812 C 330.109375 60.398438 328.945312 60.496094 328.160156 68.210938 C 327.378906 75.921875 322.203125 95.933594 323.671875 105.304688 C 325.132812 114.675781 328.261719 116.921875 325.816406 126.292969 C 323.988281 133.3125 321.785156 145.769531 323.347656 153.960938 C 323.347656 153.960938 320.941406 146.757812 321.878906 139.273438 C 315.398438 140.734375 293.515625 145.917969 263.441406 155.671875 C 227.324219 167.386719 195.285156 177.375 177.542969 201.546875 C 161.210938 223.804688 157.96875 236.664062 147.953125 240.410156 C 142.820312 242.324219 135.886719 240.394531 132.609375 236.148438 C 132.609375 236.148438 138.335938 239.574219 143.367188 238.808594 C 131.304688 220.347656 129.054688 155.863281 135.371094 118.992188 C 161.453125 -33.214844 -33.359375 3.171875 7.164062 92.371094 C 16.398438 112.691406 32.207031 110.734375 41.410156 113.414062 C 41.574219 90.148438 29.851562 90.789062 29.851562 90.789062 C 44.589844 87.066406 43.867188 109.210938 44.738281 117.429688 C 49.382812 161.515625 54.328125 200.851562 81.90625 236.9375 C 91.757812 249.824219 140.699219 289.195312 159.183594 284.804688 C 161.351562 278.566406 171.359375 271.582031 171.359375 271.582031 C 169.027344 274.433594 162.179688 279.886719 161.390625 285.097656 C 160.855469 288.617188 159.71875 297.648438 173.976562 297.648438 C 191.253906 297.648438 244.648438 297.648438 247.820312 297.648438 C 250.992188 297.648438 250.992188 295.550781 250.992188 295.550781 C 250.992188 295.550781 252.160156 295.792969 252.996094 297.210938 C 252.996094 297.210938 252.996094 293.890625 250.554688 293.207031 C 248.117188 292.523438 248.894531 290.960938 244.164062 290.863281 C 239.429688 290.761719 235.425781 290.078125 231.621094 289.351562 C 226.589844 288.378906 213.640625 288.242188 208.605469 288.082031 C 208.605469 288.082031 219.175781 286.757812 227.734375 286.214844 C 255.710938 265.875 292.496094 263.847656 324.0625 238.871094 C 324.0625 238.871094 320.132812 245.390625 316.058594 247.683594 C 317.515625 251.277344 320.5625 258.992188 323.179688 267 C 326.59375 277.449219 330.648438 303.5625 337.582031 303.5625 Z M 337.59375 303.546875 " fill-opacity="1" fill-rule="evenodd"/></g></svg>