<svg xmlns="http://www.w3.org/2000/svg" xmlns:xlink="http://www.w3.org/1999/xlink" width="200" zoomAndPan="magnify" viewBox="0 0 150 187.499995" height="250" preserveAspectRatio="xMidYMid meet" version="1.0"><defs><g/><clipPath id="2856eb9df2"><path d="M 0.199219 0 L 140 0 L 140 187 L 0.199219 187 Z M 0.199219 0 " clip-rule="nonzero"/></clipPath><clipPath id="547af5c6d5"><rect x="0" width="140" y="0" height="187"/></clipPath><clipPath id="8c3cdfd91e"><rect x="0" width="135" y="0" height="187"/></clipPath></defs><g clip-path="url(#2856eb9df2)"><g transform="matrix(1, 0, 0, 1, 0.000000000000000028, 0)"><g clip-path="url(#547af5c6d5)"><g fill="#ffffff" fill-opacity="1"><g transform="translate(0.569429, 119.345678)"><g><path d="M 51.921875 1.046875 C 44.085938 1.046875 36.984375 -0.675781 30.609375 -4.125 C 24.234375 -7.570312 19.175781 -12.65625 15.4375 -19.375 C 11.695312 -26.101562 9.828125 -34.144531 9.828125 -43.5 C 9.828125 -50.632812 11.050781 -58.582031 13.5 -67.34375 C 18.882812 -86.050781 27.332031 -99.265625 38.84375 -106.984375 C 50.363281 -114.703125 62.671875 -118.5625 75.765625 -118.5625 C 87.691406 -118.5625 98.453125 -114.234375 108.046875 -105.578125 L 113.296875 -110.671875 C 116.222656 -113.128906 118.738281 -114.820312 120.84375 -115.75 C 122.945312 -116.6875 125.398438 -117.15625 128.203125 -117.15625 C 131.242188 -117.15625 133.703125 -116.425781 135.578125 -114.96875 C 137.453125 -113.507812 138.390625 -111.550781 138.390625 -109.09375 C 138.390625 -108.15625 138.210938 -107.046875 137.859375 -105.765625 L 131.546875 -83.65625 C 130.378906 -79.914062 129.003906 -77.285156 127.421875 -75.765625 C 125.835938 -74.242188 123.703125 -73.484375 121.015625 -73.484375 C 118.210938 -73.484375 115.726562 -74.1875 113.5625 -75.59375 C 111.40625 -77 108.921875 -79.515625 106.109375 -83.140625 C 102.367188 -88.046875 99.066406 -91.519531 96.203125 -93.5625 C 93.335938 -95.613281 90.207031 -96.640625 86.8125 -96.640625 C 81.550781 -96.640625 76.550781 -93.976562 71.8125 -88.65625 C 67.082031 -83.34375 62.960938 -74.488281 59.453125 -62.09375 C 57.234375 -54.019531 56.125 -47.0625 56.125 -41.21875 C 56.125 -35.019531 57.320312 -30.3125 59.71875 -27.09375 C 62.113281 -23.882812 65.476562 -22.28125 69.8125 -22.28125 C 73.550781 -22.28125 76.441406 -23.15625 78.484375 -24.90625 C 80.535156 -26.65625 82.144531 -29.695312 83.3125 -34.03125 L 84.53125 -38.40625 C 85.125 -40.75 85.421875 -42.328125 85.421875 -43.140625 C 85.421875 -44.546875 85.097656 -45.539062 84.453125 -46.125 C 83.804688 -46.707031 82.722656 -47.351562 81.203125 -48.0625 L 75.0625 -50.34375 C 72.375 -51.394531 71.03125 -53.320312 71.03125 -56.125 C 71.03125 -56.945312 71.085938 -57.585938 71.203125 -58.046875 C 71.671875 -59.566406 72.519531 -60.675781 73.75 -61.375 C 74.976562 -62.082031 76.878906 -62.4375 79.453125 -62.4375 L 132.421875 -62.265625 C 136.273438 -62.265625 138.203125 -61.035156 138.203125 -58.578125 C 138.203125 -58.109375 138.085938 -57.40625 137.859375 -56.46875 C 137.390625 -54.71875 136.628906 -53.316406 135.578125 -52.265625 C 134.523438 -51.210938 133.003906 -50.160156 131.015625 -49.109375 L 126.453125 -46.484375 C 125.285156 -45.773438 124.410156 -45.097656 123.828125 -44.453125 C 123.242188 -43.816406 122.832031 -43.03125 122.59375 -42.09375 L 113.296875 -9.640625 C 112.128906 -5.785156 110.8125 -3.210938 109.34375 -1.921875 C 107.882812 -0.640625 106.101562 0 104 0 L 96.640625 0 C 93.835938 0 91.53125 -0.582031 89.71875 -1.75 C 87.90625 -2.925781 86.410156 -5.207031 85.234375 -8.59375 L 83.484375 -13.6875 C 75.066406 -3.863281 64.546875 1.046875 51.921875 1.046875 Z M 51.921875 1.046875 "/></g></g></g></g></g></g><g transform="matrix(1, 0, 0, 1, 8, 0)"><g clip-path="url(#8c3cdfd91e)"><g fill="#6b979f" fill-opacity="1"><g transform="translate(5.885222, 183.273567)"><g><path d="M 66.640625 -102.53125 C 66.898438 -103.289062 67.03125 -104.304688 67.03125 -105.578125 C 67.03125 -107.597656 66.488281 -109.238281 65.40625 -110.5 C 64.332031 -111.769531 62.65625 -113.164062 60.375 -114.6875 C 58.476562 -116.070312 57.117188 -117.269531 56.296875 -118.28125 C 55.472656 -119.300781 55.253906 -120.507812 55.640625 -121.90625 C 56.015625 -123.675781 56.960938 -124.875 58.484375 -125.5 C 60.003906 -126.132812 62.410156 -126.453125 65.703125 -126.453125 L 119.625 -126.453125 C 122.28125 -126.453125 124.332031 -126.007812 125.78125 -125.125 C 127.238281 -124.238281 127.96875 -123.097656 127.96875 -121.703125 C 127.96875 -121.078125 127.78125 -120.253906 127.40625 -119.234375 C 127.03125 -118.347656 126.492188 -117.554688 125.796875 -116.859375 C 125.097656 -116.171875 124.460938 -115.664062 123.890625 -115.34375 C 123.316406 -115.03125 122.90625 -114.75 122.65625 -114.5 C 120.632812 -113.351562 118.988281 -112.082031 117.71875 -110.6875 C 116.457031 -109.300781 115.382812 -107.148438 114.5 -104.234375 L 95.890625 -38.546875 C 92.085938 -25.128906 85.628906 -15.160156 76.515625 -8.640625 C 67.398438 -2.117188 55.566406 1.140625 41.015625 1.140625 C 31.265625 1.140625 23.003906 -0.28125 16.234375 -3.125 C 9.460938 -5.976562 4.367188 -9.804688 0.953125 -14.609375 C -2.460938 -19.421875 -4.171875 -24.675781 -4.171875 -30.375 C -4.171875 -33.164062 -3.789062 -35.890625 -3.03125 -38.546875 C -1.382812 -44.242188 1.425781 -48.546875 5.40625 -51.453125 C 9.394531 -54.367188 13.859375 -55.828125 18.796875 -55.828125 C 24.492188 -55.828125 28.859375 -54.113281 31.890625 -50.6875 C 34.929688 -47.269531 36.453125 -42.90625 36.453125 -37.59375 C 36.453125 -34.9375 36.070312 -32.28125 35.3125 -29.625 C 33.789062 -24.300781 30.941406 -20.375 26.765625 -17.84375 C 28.796875 -16.582031 31.140625 -15.953125 33.796875 -15.953125 C 36.453125 -15.953125 38.789062 -17.28125 40.8125 -19.9375 C 42.84375 -22.59375 44.554688 -26.328125 45.953125 -31.140625 Z M 66.640625 -102.53125 "/></g></g></g></g></g></svg>